
<svg width="100" height="100" viewBox="0 0 200 200" fill="none" xmlns="http://www.w3.org/2000/svg">
<g clip-path="url(#clip0_1840_1012)">
<path d="M100 200C155.138 200 200 155.138 200 100C200 44.862 155.138 0 100 0C44.8616 0 0 44.862 0 100C0 155.138 44.8616 200 100 200ZM100 12.5C148.251 12.5 187.5 51.7492 187.5 100C187.5 148.25 148.251 187.5 100 187.5C51.7492 187.5 12.5 148.25 12.5 100C12.5 51.7492 51.7492 12.5 100 12.5ZM100 39.0616C119.931 39.0616 136.094 55.0876 136.094 74.8628C136.094 94.632 119.938 110.657 100 110.657C80.0628 110.657 63.9124 94.6308 63.9124 74.8628C63.9124 55.0876 80.0692 39.0616 100 39.0616ZM100 100.425C114.238 100.425 125.782 88.9756 125.782 74.8556C125.782 60.7308 114.238 49.2876 100 49.2876C85.7616 49.2876 74.2184 60.7372 74.2184 74.8556C74.2184 88.9816 85.7616 100.425 100 100.425ZM100 100.425C128.482 100.425 151.563 123.319 151.563 151.563H141.25C141.25 128.976 122.782 110.657 100 110.657C77.2184 110.657 58.7496 128.975 58.7496 151.563H48.4372C48.4372 123.319 71.5184 100.425 100 100.425Z" fill="#485264"/>
</g>
<defs>
<clipPath id="clip0_1840_1012">
<rect width="200" height="200" fill="white"/>
</clipPath>
</defs>
</svg>
