
<svg width="100" height="100" viewBox="0 0 200 200" fill="none" xmlns="http://www.w3.org/2000/svg">
<path d="M151.876 117.708C155.876 117.71 159.822 118.633 163.408 120.406C166.993 122.179 170.122 124.755 172.552 127.932C174.982 131.11 176.647 134.805 177.418 138.73C178.189 142.655 178.046 146.705 176.999 150.566C175.952 154.427 174.029 157.994 171.381 160.992C168.732 163.99 165.429 166.337 161.726 167.852C158.024 169.367 154.023 170.009 150.032 169.727C146.042 169.446 142.17 168.249 138.717 166.229C126.34 174.389 111.671 178.361 96.8672 177.562C89.594 177.189 82.4246 175.674 75.6214 173.075L73.7922 172.342L78.5922 160.8C84.5506 163.279 90.9256 164.733 97.5214 165.079C108.751 165.687 119.908 162.95 129.58 157.212C127.195 153.262 125.903 148.75 125.835 144.136C125.768 139.522 126.927 134.974 129.195 130.955C131.463 126.937 134.757 123.593 138.742 121.266C142.726 118.939 147.257 117.713 151.871 117.712L151.876 117.708ZM62.6881 49.7042L69.4672 60.2042C61.8606 65.0969 55.5278 71.7299 50.9922 79.5548C46.4567 87.3797 43.8487 96.1718 43.3839 105.204C43.1543 109.535 43.4171 113.878 44.1672 118.15C50.4047 116.981 56.8544 118.13 62.3044 121.381C67.7545 124.632 71.8299 129.761 73.765 135.805C75.7001 141.849 75.3617 148.392 72.8134 154.203C70.2651 160.015 65.6822 164.697 59.9258 167.368C54.1694 170.04 47.6357 170.517 41.552 168.711C35.4684 166.905 30.2537 162.939 26.8875 157.56C23.5213 152.18 22.2353 145.756 23.2712 139.495C24.3071 133.234 27.5935 127.567 32.5131 123.558C31.1055 117.326 30.5643 110.93 30.9047 104.55C31.4589 93.8038 34.5016 83.3333 39.793 73.9638C45.0844 64.5942 52.4799 56.5819 61.3964 50.5583L62.6881 49.7042ZM151.876 130.208C148.284 130.208 144.84 131.635 142.3 134.175C139.761 136.714 138.334 140.159 138.334 143.75C138.334 147.341 139.761 150.786 142.3 153.325C144.84 155.865 148.284 157.292 151.876 157.292C155.467 157.292 158.911 155.865 161.451 153.325C163.991 150.786 165.417 147.341 165.417 143.75C165.417 140.159 163.991 136.714 161.451 134.175C158.911 131.635 155.467 130.208 151.876 130.208ZM48.9589 130.208C45.3674 130.208 41.9231 131.635 39.3835 134.175C36.8439 136.714 35.4172 140.159 35.4172 143.75C35.4172 147.341 36.8439 150.786 39.3835 153.325C41.9231 155.865 45.3674 157.292 48.9589 157.292C52.5504 157.292 55.9948 155.865 58.5343 153.325C61.0739 150.786 62.5006 147.341 62.5006 143.75C62.5006 140.159 61.0739 136.714 58.5343 134.175C55.9948 131.635 52.5504 130.208 48.9589 130.208ZM100.417 18.75C107.097 18.7501 113.522 21.3173 118.363 25.9207C123.203 30.5241 126.09 36.8117 126.426 43.4833C139.378 48.7312 150.45 57.7557 158.204 69.3826C165.957 81.0096 170.031 94.7008 169.896 108.675L169.867 110.142L157.376 109.75C157.72 98.4916 154.728 87.3827 148.776 77.8198C142.825 68.257 134.179 60.667 123.926 56.0042C121.92 60.2081 118.824 63.7972 114.96 66.3975C111.095 68.9977 106.604 70.514 101.954 70.7882C97.3047 71.0624 92.6666 70.0845 88.5234 67.9564C84.3802 65.8284 80.8836 62.6281 78.3979 58.689C75.9123 54.75 74.5286 50.2163 74.391 45.5606C74.2535 40.9049 75.3672 36.2975 77.616 32.2185C79.8648 28.1396 83.1664 24.7385 87.1768 22.3696C91.1872 20.0007 95.7595 18.7507 100.417 18.75ZM100.417 31.25C98.6389 31.25 96.878 31.6003 95.2351 32.2808C93.5921 32.9613 92.0993 33.9588 90.8418 35.2163C89.5844 36.4737 88.5869 37.9665 87.9064 39.6095C87.2258 41.2524 86.8756 43.0133 86.8756 44.7917C86.8756 46.57 87.2258 48.3309 87.9064 49.9738C88.5869 51.6168 89.5844 53.1096 90.8418 54.3671C92.0993 55.6245 93.5921 56.622 95.2351 57.3025C96.878 57.9831 98.6389 58.3333 100.417 58.3333C104.009 58.3333 107.453 56.9066 109.993 54.3671C112.532 51.8275 113.959 48.3831 113.959 44.7917C113.959 41.2002 112.532 37.7558 109.993 35.2163C107.453 32.6767 104.009 31.25 100.417 31.25Z" fill="#485264"/>
</svg>
