
<svg width="100" height="100" viewBox="0 0 200 200" fill="none" xmlns="http://www.w3.org/2000/svg">
<g clip-path="url(#clip0_1867_7522)">
<path d="M107.239 150.339C104.494 150.801 101.679 151.047 98.8061 151.047C70.8307 151.047 48.0804 128.287 48.0804 100.322C48.0804 72.3464 70.8406 49.5961 98.8061 49.5961C126.782 49.5961 149.532 72.3562 149.532 100.322C149.532 110.034 146.786 119.107 142.034 126.831L146.944 132.174L151.785 137.439C159.175 126.92 163.534 114.127 163.534 100.332C163.534 64.6416 134.496 35.6133 98.816 35.6133C63.126 35.6133 34.0977 64.6514 34.0977 100.332C34.0977 136.022 63.1358 165.06 98.816 165.06C103.215 165.06 107.515 164.617 111.677 163.771L109.463 157.06L107.239 150.339Z" fill="#485264"/>
<path d="M170.958 170.396L155.942 154.051L146.614 143.906L141.871 138.75L137.089 133.544L95.1992 87.9453L115.155 148.344L117.349 154.996L119.544 161.628L123.686 174.174L130.633 195.212L130.663 195.281C146.171 190.44 160.075 181.967 171.381 170.858L170.958 170.396Z" fill="#485264"/>
<path d="M100.005 0C44.861 0 0 44.861 0 99.9951C0 117.018 4.29029 133.058 11.818 147.1C28.6839 178.549 61.8844 200 99.9951 200C107.759 200 115.306 199.075 122.568 197.402C122.647 197.383 122.716 197.363 122.795 197.353L115.818 176.226C110.711 177.289 105.417 177.85 99.9951 177.85C57.0726 177.85 22.1501 142.927 22.1501 100.005C22.1501 57.0824 57.0726 22.1599 99.9951 22.1599C142.918 22.1599 177.84 57.0824 177.84 100.005C177.84 118.012 171.67 134.603 161.368 147.808L176.512 164.29C191.154 146.893 200 124.467 200 100.005C200 44.861 155.149 0 100.005 0Z" fill="#485264"/>
<path d="M122.555 197.37C122.634 197.35 122.704 197.34 122.783 197.32C122.704 197.34 122.634 197.36 122.555 197.37Z" fill="#485264"/>
</g>
<defs>
<clipPath id="clip0_1867_7522">
<rect width="200" height="200" fill="white"/>
</clipPath>
</defs>
</svg>
