
<svg width="405" height="140" viewBox="0 0 405 140" fill="none" xmlns="http://www.w3.org/2000/svg">
<path d="M75.0662 105.238C73.1444 105.561 71.1744 105.734 69.1631 105.734C49.5803 105.734 33.6551 89.8015 33.6551 70.2256C33.6551 50.6428 49.5872 34.7176 69.1631 34.7176C88.7459 34.7176 104.671 50.6497 104.671 70.2256C104.671 77.0242 102.749 83.375 99.4224 88.7821L102.86 92.5223L106.248 96.2074C111.421 88.8441 114.473 79.8896 114.473 70.2325C114.473 45.2495 94.1462 24.9297 69.17 24.9297C44.187 24.9297 23.8672 45.2564 23.8672 70.2325C23.8672 95.2156 44.1939 115.542 69.17 115.542C72.249 115.542 75.2591 115.232 78.1727 114.64L76.6229 109.942L75.0662 105.238Z" fill="black"/>
<path d="M119.672 119.278L109.161 107.837L102.631 100.735L99.3107 97.1256L95.9631 93.4818L66.6406 61.5625L80.6096 103.841L82.1457 108.498L83.6817 113.14L86.5816 121.923L91.4446 136.649L91.4652 136.698C102.321 133.309 112.054 127.378 119.968 119.601L119.672 119.278Z" fill="black"/>
<path d="M70.0034 0C31.4027 0 0 31.4027 0 69.9966C0 81.9129 3.0032 93.1405 8.27258 102.97C20.0787 124.984 43.3191 140 69.9966 140C75.4313 140 80.7144 139.353 85.7978 138.182C85.8529 138.168 85.9011 138.154 85.9562 138.147L81.0726 123.358C77.4977 124.102 73.7919 124.495 69.9966 124.495C39.9508 124.495 15.505 100.049 15.505 70.0034C15.505 39.9577 39.9508 15.5119 69.9966 15.5119C100.042 15.5119 124.488 39.9577 124.488 70.0034C124.488 82.6086 120.169 94.2219 112.957 103.466L123.558 115.003C133.808 102.825 140 87.1272 140 70.0034C140 31.4027 108.604 0 70.0034 0Z" fill="black"/>
<path d="M85.7891 138.16C85.8446 138.146 85.8933 138.139 85.9488 138.125C85.8933 138.139 85.8446 138.153 85.7891 138.16Z" fill="black"/>
<path d="M162 26C162 24.3431 163.343 23 165 23H176V83C176 84.6569 174.657 86 173 86H162V26Z" fill="black"/>
<path d="M184 54H199.246L224 86H209.279C208.33 86 207.437 85.5508 206.871 84.7889L184 54Z" fill="black"/>
<path d="M184 54H199.246L224 23H209.251C208.318 23 207.438 23.4341 206.87 24.1745L184 54Z" fill="black"/>
<path d="M238 83C238 84.6569 239.343 86 241 86H289.053C295.099 86 300 81.0987 300 75.0526C300 73.919 299.081 73 297.947 73H241C239.343 73 238 74.3431 238 76V83Z" fill="black"/>
<path d="M287 65C287 63.3431 288.343 62 290 62H297C298.657 62 300 63.3431 300 65V75H287V65Z" fill="black"/>
<rect x="238" y="36" width="13" height="39" fill="black"/>
<path d="M238 23H288.696C294.939 23 300 28.0611 300 34.3043C300 35.2408 299.241 36 298.304 36H238V23Z" fill="black"/>
<path d="M258 57C258 58.6569 259.343 60 261 60H289.053C295.099 60 300 55.0987 300 49.0526C300 47.919 299.081 47 297.947 47H261C259.343 47 258 48.3431 258 50V57Z" fill="black"/>
<rect x="287" y="34" width="13" height="15" fill="black"/>
<path d="M331.844 99.0078H349.002C349.484 99.0078 349.875 99.3984 349.875 99.8803V103.079H332.716C332.234 103.079 331.844 102.689 331.844 102.207V99.0078Z" fill="black"/>
<path d="M331.844 107.154C331.844 106.672 332.234 106.281 332.716 106.281H349.002C349.484 106.281 349.875 106.672 349.875 107.154V109.48C349.875 109.962 349.484 110.353 349.002 110.353H332.716C332.234 110.353 331.844 109.962 331.844 109.48V107.154Z" fill="black"/>
<path d="M331.844 114.13C331.844 113.648 332.234 113.258 332.716 113.258H349.002C349.484 113.258 349.875 113.648 349.875 114.13V117.329H332.716C332.234 117.329 331.844 116.939 331.844 116.457V114.13Z" fill="black"/>
<path d="M331.844 106.281H335.915V117.332H332.716C332.234 117.332 331.844 116.942 331.844 116.46V106.281Z" fill="black"/>
<path d="M359.398 99.0078H376.557C377.039 99.0078 377.429 99.3984 377.429 99.8803V103.079H360.271C359.789 103.079 359.398 102.689 359.398 102.207V99.0078Z" fill="black"/>
<path d="M359.398 107.154C359.398 106.672 359.789 106.281 360.271 106.281H376.557C377.039 106.281 377.429 106.672 377.429 107.154V109.48C377.429 109.962 377.039 110.353 376.557 110.353H360.271C359.789 110.353 359.398 109.962 359.398 109.48V107.154Z" fill="black"/>
<path d="M359.398 114.13C359.398 113.648 359.789 113.258 360.271 113.258H376.557C377.039 113.258 377.429 113.648 377.429 114.13V117.329H360.271C359.789 117.329 359.398 116.939 359.398 116.457V114.13Z" fill="black"/>
<path d="M359.398 106.281H363.47V117.332H360.271C359.789 117.332 359.398 116.942 359.398 116.46V106.281Z" fill="black"/>
<path d="M304.289 100.753C304.289 99.7891 305.07 99.0078 306.034 99.0078H321.447C321.929 99.0078 322.32 99.3984 322.32 99.8803V103.079H304.289V100.753Z" fill="black"/>
<path d="M304.289 107.154C304.289 106.672 304.68 106.281 305.162 106.281H321.447C321.929 106.281 322.32 106.672 322.32 107.154V109.48C322.32 109.962 321.929 110.353 321.447 110.353H305.162C304.68 110.353 304.289 109.962 304.289 109.48V107.154Z" fill="black"/>
<path d="M304.289 113.258H321.447C321.929 113.258 322.32 113.648 322.32 114.13V117.329H305.162C304.68 117.329 304.289 116.939 304.289 116.457V113.258Z" fill="black"/>
<path d="M304.289 103.078H308.361V110.058H305.162C304.68 110.058 304.289 109.667 304.289 109.185V103.078Z" fill="black"/>
<path d="M318.242 106.281H321.441C321.923 106.281 322.314 106.672 322.314 107.154V116.46C322.314 116.942 321.923 117.332 321.441 117.332H319.115C318.633 117.332 318.242 116.942 318.242 116.46V106.281Z" fill="black"/>
<path d="M249.5 114.146C249.5 113.664 249.891 113.273 250.373 113.273H266.658C267.14 113.273 267.531 113.664 267.531 114.146V117.345H250.373C249.891 117.345 249.5 116.954 249.5 116.472V114.146Z" fill="black"/>
<path d="M249.5 99.8959C249.5 99.4141 249.891 99.0234 250.373 99.0234H253.571V117.345H250.373C249.891 117.345 249.5 116.954 249.5 116.473V99.8959Z" fill="black"/>
<path d="M277.062 99.8959C277.062 99.4141 277.453 99.0234 277.935 99.0234H291.022C293.27 99.0234 295.093 100.846 295.093 103.095H277.935C277.453 103.095 277.062 102.704 277.062 102.222V99.8959Z" fill="black"/>
<path d="M277.062 113.273H295.093V116.472C295.093 116.954 294.703 117.345 294.221 117.345H277.062V113.273Z" fill="black"/>
<path d="M291.016 103.094H295.087V113.272H291.016V103.094Z" fill="black"/>
<path d="M277.062 106.297H281.134V117.348H277.062V106.297Z" fill="black"/>
<path d="M193.344 99.8959C193.344 99.4141 193.734 99.0234 194.216 99.0234H207.303C209.552 99.0234 211.375 100.846 211.375 103.095H194.216C193.734 103.095 193.344 102.704 193.344 102.222V99.8959Z" fill="black"/>
<path d="M197.438 113.273H211.397V116.472C211.397 116.954 211.006 117.345 210.524 117.345H197.438V113.273Z" fill="black"/>
<path d="M207.297 103.094H211.368V113.272H207.297V103.094Z" fill="black"/>
<path d="M193.344 99.8959C193.344 99.4141 193.734 99.0234 194.216 99.0234H197.415V117.345C195.167 117.345 193.344 115.522 193.344 113.274V99.8959Z" fill="black"/>
<path d="M386.961 99.8725C386.961 99.3906 387.352 99 387.833 99H391.032V116.449C391.032 116.931 390.642 117.322 390.16 117.322H386.961V99.8725Z" fill="black"/>
<path d="M393.367 108.016H397.801L405 117.322H400.719C400.443 117.322 400.183 117.191 400.018 116.97L393.367 108.016Z" fill="black"/>
<path d="M393.367 108.016H397.801L405 99.0002H400.711C400.439 99.0002 400.183 99.1265 400.018 99.3418L393.367 108.016Z" fill="black"/>
<path d="M183.813 100.793L183.813 116.479C183.813 116.961 183.422 117.352 182.94 117.352L180.173 117.352L172.761 110.448L165.644 117.352L162.874 117.352C162.392 117.352 162.001 116.961 162.001 116.479L162.001 100.775C162.001 99.8112 162.782 99.0299 163.746 99.0299L166.181 99.0299L166.181 110.448L170.699 106.3L175.114 106.3L179.632 110.47L179.632 99.0484L182.067 99.0484C183.031 99.0484 183.813 99.8297 183.813 100.793Z" fill="black"/>
<path d="M220.93 99.0234H235.42C237.375 99.0234 238.961 100.609 238.961 102.564C238.961 102.857 238.723 103.095 238.429 103.095H220.93V99.0234Z" fill="black"/>
<path d="M220.93 109.495C220.93 109.977 221.32 110.367 221.802 110.367H235.532C237.425 110.367 238.961 108.832 238.961 106.939C238.961 106.584 238.673 106.296 238.318 106.296H221.802C221.32 106.296 220.93 106.686 220.93 107.168V109.495Z" fill="black"/>
<path d="M220.93 106.297H225.001V117.348H221.802C221.32 117.348 220.93 116.957 220.93 116.476V106.297Z" fill="black"/>
<path d="M231.109 110.07H235.617L239.979 117.341H235.692C235.376 117.341 235.085 117.17 234.931 116.895L231.109 110.07Z" fill="black"/>
<rect x="235.18" y="102.523" width="3.78066" height="4.65312" fill="black"/>
</svg>
