
<?xml version="1.0" standalone="no"?><!DOCTYPE svg PUBLIC "-//W3C//DTD SVG 1.1//EN" "http://www.w3.org/Graphics/SVG/1.1/DTD/svg11.dtd"><svg t="1746757274870" class="icon" viewBox="0 0 1024 1024" version="1.1" xmlns="http://www.w3.org/2000/svg" p-id="5474" xmlns:xlink="http://www.w3.org/1999/xlink" width="200" height="200"><path d="M663.04 962.56h-122.88a61.44 61.44 0 0 1-61.44-61.44V81.92a61.44 61.44 0 0 1 61.44-61.44h122.88a61.44 61.44 0 0 1 61.44 61.44v819.2a61.44 61.44 0 0 1-61.44 61.44z m0-762.88a20.48 20.48 0 0 0-20.48-20.48h-81.92a20.48 20.48 0 0 0-20.48 20.48 20.48 20.48 0 0 0 20.48 20.48h81.92a20.48 20.48 0 0 0 20.48-20.48zM665.6 296.96a20.48 20.48 0 0 0-20.48-20.48h-81.92a20.48 20.48 0 0 0-20.48 20.48 20.48 20.48 0 0 0 20.48 20.48h81.92a20.48 20.48 0 0 0 20.48-20.48z m0 97.28a20.48 20.48 0 0 0-20.48-20.48h-81.92a20.48 20.48 0 0 0-20.48 20.48 20.48 20.48 0 0 0 20.48 20.48h81.92a20.48 20.48 0 0 0 20.48-20.48z m0 174.08a20.48 20.48 0 0 0-20.48-20.48h-81.92a20.48 20.48 0 0 0-20.48 20.48 20.48 20.48 0 0 0 20.48 20.48h81.92a20.48 20.48 0 0 0 20.48-20.48z" fill="#00B5FF" p-id="5475"></path><path d="M164.9664 960.1024l-117.5552-35.84a61.44 61.44 0 0 1-40.96-76.6976L244.8384 63.8976a61.44 61.44 0 0 1 76.6976-40.96l117.4528 35.84a61.44 61.44 0 0 1 40.96 76.6976L241.5616 919.1424a61.44 61.44 0 0 1-76.5952 40.96z m221.9008-729.9072A20.48 20.48 0 0 0 373.248 204.8l-78.336-23.9616A20.48 20.48 0 0 0 269.312 194.56a20.48 20.48 0 0 0 13.6192 25.6l78.336 23.8592a20.48 20.48 0 0 0 25.6-13.824z m-25.8048 93.7984a20.48 20.48 0 0 0-13.6192-25.6l-78.336-23.8592a20.48 20.48 0 0 0-25.6 13.6192 20.48 20.48 0 0 0 13.6192 25.6L335.4624 337.92a20.48 20.48 0 0 0 25.6-13.9264z m-28.2624 93.0816a20.48 20.48 0 0 0-13.6192-25.6l-78.336-23.8592A20.48 20.48 0 0 0 215.04 381.3376a20.48 20.48 0 0 0 13.6192 25.6L307.2 430.6944a20.48 20.48 0 0 0 25.4976-13.6192zM282.112 583.68a20.48 20.48 0 0 0-13.6192-25.6l-78.336-23.8592a20.48 20.48 0 0 0-25.6 13.6192A20.48 20.48 0 0 0 178.176 573.44l78.336 23.8592a20.48 20.48 0 0 0 25.6-13.6192zM949.76 962.56h-122.88a61.44 61.44 0 0 1-61.44-61.44V81.92a61.44 61.44 0 0 1 61.44-61.44h122.88a61.44 61.44 0 0 1 61.44 61.44v819.2a61.44 61.44 0 0 1-61.44 61.44z m0-762.88a20.48 20.48 0 0 0-20.48-20.48h-81.92a20.48 20.48 0 0 0-20.48 20.48 20.48 20.48 0 0 0 20.48 20.48h81.92a20.48 20.48 0 0 0 20.48-20.48zM952.32 296.96a20.48 20.48 0 0 0-20.48-20.48h-81.92a20.48 20.48 0 0 0-20.48 20.48 20.48 20.48 0 0 0 20.48 20.48h81.92a20.48 20.48 0 0 0 20.48-20.48z m0 97.28a20.48 20.48 0 0 0-20.48-20.48h-81.92a20.48 20.48 0 0 0-20.48 20.48 20.48 20.48 0 0 0 20.48 20.48h81.92a20.48 20.48 0 0 0 20.48-20.48z m0 174.08a20.48 20.48 0 0 0-20.48-20.48h-81.92a20.48 20.48 0 0 0-20.48 20.48 20.48 20.48 0 0 0 20.48 20.48h81.92a20.48 20.48 0 0 0 20.48-20.48z" fill="#00B5FF" p-id="5476"></path></svg>