
<svg width="100" height="100" viewBox="0 0 200 200" fill="none" xmlns="http://www.w3.org/2000/svg">
<path d="M16.3096 64.082L97.4229 108.281C98.2432 108.73 99.1416 108.945 100.04 108.945C100.919 108.945 101.817 108.73 102.638 108.281L184.61 64.082C186.407 63.125 187.501 61.25 187.481 59.1992C187.462 57.168 186.31 55.3125 184.493 54.3945L103.38 13.1836C101.837 12.4023 100.001 12.4023 98.4385 13.1836L16.4854 54.4141C14.669 55.332 13.4971 57.168 13.4776 59.2188C13.4385 61.2305 14.5322 63.125 16.3096 64.082ZM100.88 23.0078L171.407 59.4336L100.06 98.457L29.5322 59.4727L100.88 23.0078ZM183.556 94.5898L167.345 86.3477L156.817 92.6562L170.47 99.5898L99.1221 138.633L28.5947 99.6484L43.1455 92.3242L32.6572 85.957L15.5283 94.5703C13.7119 95.4883 12.5401 97.3242 12.5205 99.3555C12.4815 101.387 13.5947 103.281 15.3721 104.238L96.4854 148.457C97.3057 148.906 98.2041 149.121 99.1026 149.121C99.9815 149.121 100.88 148.906 101.7 148.457L183.673 104.258C185.47 103.301 186.563 101.406 186.544 99.375C186.505 97.3633 185.353 95.5078 183.556 94.5898ZM183.556 132.852L168.185 125.293L165.997 131.602L170.47 137.852L99.1221 176.895L28.5947 137.93L33.7901 131.797L31.6416 125.43L15.5283 132.852C13.7119 133.77 12.5401 135.605 12.5205 137.637C12.4815 139.668 13.5947 141.562 15.3721 142.539L96.4854 186.738C97.3057 187.187 98.2041 187.402 99.1026 187.402C99.9815 187.402 100.88 187.187 101.7 186.738L183.673 142.539C185.47 141.582 186.563 139.707 186.544 137.656C186.505 135.625 185.353 133.789 183.556 132.852Z" fill="#272636"/>
</svg>
