<svg width="100" height="100" viewBox="0 0 200 200" fill="none" xmlns="http://www.w3.org/2000/svg">
<path d="M46.7801 0.0117188H29.6045C23.0049 0.0117188 17.6523 5.38789 17.6523 11.9521V176.472C17.6523 183.048 23.0285 188.424 29.5928 188.424H46.7801V0.0117188ZM181.643 7.90547L181.548 7.67012C181.423 7.33799 181.282 7.01209 181.125 6.69355L181.007 6.4584C180.943 6.33954 180.876 6.22188 180.807 6.10547L180.654 5.83496L180.513 5.61152C180.376 5.39483 180.23 5.18292 180.078 4.97617L179.925 4.76445L179.713 4.49395C179.64 4.40263 179.566 4.31238 179.49 4.22324L179.302 4.01152L179.125 3.83516L178.772 3.45859L178.549 3.25859L178.396 3.10566C178.276 2.99728 178.155 2.8914 178.031 2.78809L177.866 2.67051C177.644 2.4915 177.416 2.3189 177.184 2.15293L177.008 2.03516C176.899 1.95897 176.789 1.88448 176.678 1.81172L176.561 1.74102C176.421 1.65983 176.28 1.58143 176.137 1.50586L175.972 1.41172C175.707 1.27178 175.436 1.14225 175.161 1.02344L175.008 0.95293C174.848 0.882737 174.688 0.816054 174.525 0.75293L174.408 0.717773C174.106 0.61045 173.8 0.516221 173.49 0.435352L173.314 0.364648C173.177 0.331004 173.04 0.299619 172.902 0.270508L172.784 0.235352C172.609 0.199931 172.432 0.168543 172.255 0.141211H172.114C171.79 0.0926359 171.464 0.05732 171.137 0.0353516H170.961C170.784 0.0119141 170.596 0.0119141 170.408 0.0119141H57.1795V188.412H170.408C170.596 188.412 170.784 188.412 170.961 188.389H171.137C171.464 188.365 171.79 188.33 172.114 188.283L172.255 188.26L172.784 188.165L172.902 188.142C173.219 188.076 173.533 187.997 173.843 187.907L174.02 187.848C174.15 187.803 174.279 187.756 174.408 187.707L174.525 187.671C174.684 187.612 174.841 187.549 174.996 187.483L175.161 187.413L175.478 187.26L175.667 187.177C175.769 187.128 175.871 187.077 175.972 187.024L176.137 186.93L176.549 186.695L176.678 186.612L177.008 186.401L177.184 186.283C177.418 186.119 177.645 185.946 177.866 185.766L178.031 185.648L178.384 185.319L178.549 185.177L178.772 184.966L178.937 184.801C179.057 184.674 179.175 184.545 179.29 184.413L179.49 184.189C179.696 183.951 179.893 183.703 180.078 183.448L180.219 183.236C180.321 183.094 180.419 182.949 180.513 182.801L180.654 182.578L181.007 181.954L181.125 181.719C181.28 181.403 181.421 181.081 181.548 180.754L181.643 180.519V180.507C182.113 179.213 182.348 177.837 182.348 176.46V11.9523C182.349 10.5727 182.11 9.20338 181.643 7.90547ZM145.904 94.618H93.6125C88.4953 94.618 84.3072 90.7006 84.3072 85.9125C84.3072 81.1129 88.4951 77.2072 93.6125 77.2072H145.904C151.033 77.2072 155.221 81.1129 155.221 85.9125C155.221 90.7006 151.033 94.618 145.904 94.618ZM145.904 55.6791H93.6125C88.4953 55.6791 84.3072 51.7498 84.3072 46.9736C84.3072 42.174 88.4951 38.2566 93.6125 38.2566H145.904C151.033 38.2566 155.221 42.174 155.221 46.9619C155.221 51.7498 151.033 55.6674 145.904 55.6674V55.6791Z" fill="#8a95a7"/>
</svg>
