
<svg width="100" height="100" viewBox="0 0 200 200" fill="none" xmlns="http://www.w3.org/2000/svg">
<g clip-path="url(#clip0_1837_803)">
<path d="M94.0218 117.839L116.881 94.9794C118.403 93.432 119.248 91.3434 119.23 89.173C119.212 87.0026 118.333 84.9282 116.786 83.4062C115.238 81.8842 113.15 81.0392 110.979 81.0571C108.809 81.0751 106.734 81.9545 105.212 83.5019L82.5443 106.361C81.797 107.109 81.2041 107.996 80.7997 108.972C80.3952 109.949 80.187 110.995 80.187 112.052C80.187 114.187 81.035 116.234 82.5443 117.743C83.2917 118.491 84.1789 119.083 85.1553 119.488C86.1318 119.892 87.1783 120.1 88.2353 120.1C90.3698 120.1 92.4169 119.253 93.9262 117.743L94.0218 117.839ZM186.512 13.3932C177.974 4.85997 166.398 0.0664063 154.327 0.0664062C142.256 0.0664063 130.679 4.85997 122.142 13.3932L82.0661 53.5646C80.5567 55.0866 79.7138 57.1459 79.7228 59.2894C79.7318 61.4329 80.5919 63.485 82.1139 64.9943C83.6359 66.5037 85.6952 67.3466 87.8387 67.3376C89.9821 67.3286 92.0343 66.4685 93.5436 64.9465L133.906 24.8707C138.013 20.7674 143.243 17.9733 148.937 16.8416C154.631 15.7099 160.533 16.2913 165.896 18.5125C171.26 20.7337 175.845 24.4948 179.071 29.3207C182.298 34.1466 184.022 39.8207 184.025 45.626C184.06 49.4867 183.316 53.3149 181.837 56.8812C180.358 60.4476 178.174 63.6787 175.417 66.3812L135.341 106.457C134.594 107.211 134.002 108.104 133.6 109.086C133.198 110.069 132.993 111.12 132.998 112.182C133.002 113.243 133.216 114.293 133.626 115.272C134.036 116.251 134.635 117.139 135.389 117.887C136.142 118.634 137.036 119.226 138.018 119.628C139 120.03 140.052 120.234 141.114 120.23C142.175 120.225 143.225 120.012 144.204 119.602C145.183 119.191 146.071 118.592 146.819 117.839L186.894 77.7631C195.377 69.175 200.102 57.5698 200.03 45.4989C199.958 33.4281 195.096 21.8798 186.512 13.3932ZM106.36 135.151L66.2845 175.227C63.6784 178.356 60.4498 180.909 56.804 182.723C53.1582 184.538 49.1749 185.574 45.1071 185.766C41.0392 185.958 36.9759 185.302 33.1753 183.84C29.3746 182.377 25.9197 180.14 23.0302 177.27C20.1406 174.401 17.8795 170.962 16.3906 167.171C14.9017 163.381 14.2175 159.322 14.3815 155.253C14.5455 151.184 15.5541 147.194 17.3433 143.535C19.1324 139.877 21.6629 136.631 24.774 134.003L64.8498 93.6404C66.3718 92.131 67.2319 90.0789 67.2408 87.9354C67.2498 85.7919 66.4069 83.7327 64.8976 82.2106C63.3883 80.6886 61.3361 79.8285 59.1926 79.8196C57.0491 79.8106 54.9899 80.6535 53.4679 82.1628L13.2965 122.239C5.0708 130.838 0.538777 142.315 0.670773 154.214C0.80277 166.113 5.58829 177.488 14.0027 185.902C22.4171 194.317 33.7915 199.102 45.6905 199.234C57.5896 199.366 69.0674 194.834 77.6663 186.608L117.742 146.533C118.489 145.785 119.082 144.898 119.487 143.922C119.891 142.945 120.099 141.899 120.099 140.842C120.099 139.785 119.891 138.738 119.487 137.762C119.082 136.785 118.489 135.898 117.742 135.151C116.995 134.403 116.108 133.811 115.131 133.406C114.155 133.002 113.108 132.794 112.051 132.794C110.994 132.794 109.948 133.002 108.971 133.406C107.995 133.811 107.108 134.403 106.36 135.151Z" fill="#5E5C5C"/>
</g>
<defs>
<clipPath id="clip0_1837_803">
<rect width="200" height="200" fill="white"/>
</clipPath>
</defs>
</svg>
