<svg width="100" height="100" viewBox="0 0 200 200" fill="none" xmlns="http://www.w3.org/2000/svg">
<path d="M8.07632 25H169.603C174.987 25 177.679 27.6921 177.679 33.0763C177.679 38.4605 174.987 41.1526 169.603 41.1526H8.07632C2.69211 41.1526 -1.47216e-07 38.4605 0 33.0763C0 27.6921 2.69211 25 8.07632 25Z" fill="#0A70B0"/>
<path d="M8.07632 25C13.4605 25 16.1526 27.6921 16.1526 33.0763V49.229C16.1526 54.6132 13.4605 57.3053 8.07632 57.3053C2.69211 57.3053 -1.47216e-07 54.6132 0 49.229V33.0763C0 27.6921 2.69211 25 8.07632 25Z" fill="#0A70B0"/>
<path d="M169.601 25C174.985 25 177.677 27.6921 177.677 33.0763V49.229C177.677 54.6132 174.985 57.3053 169.601 57.3053C164.217 57.3053 161.524 54.6132 161.524 49.229V33.0763C161.524 27.6921 164.217 25 169.601 25Z" fill="#0A70B0"/>
<path d="M135.389 167.838C135.389 162.454 138.082 159.761 143.466 159.761H191.924C197.308 159.761 200 162.454 200 167.838C200 173.222 197.308 175.914 191.924 175.914H143.466C138.082 175.914 135.389 173.222 135.389 167.838Z" fill="#0A70B0"/>
<path d="M135.389 135.532C135.389 130.148 138.082 127.456 143.466 127.456H191.924C197.308 127.456 200 130.148 200 135.532C200 140.917 197.308 143.609 191.924 143.609H143.466C138.082 143.609 135.389 140.917 135.389 135.532Z" fill="#0A70B0"/>
<path d="M135.389 103.227C135.389 97.843 138.082 95.1509 143.466 95.1509H191.924C197.308 95.1509 200 97.843 200 103.227C200 108.611 197.308 111.304 191.924 111.304H143.466C138.082 111.304 135.389 108.611 135.389 103.227Z" fill="#0A70B0"/>
<path d="M89.1606 25C94.4372 25 97.0754 26.928 97.0754 30.7839V169.597C97.0754 173.453 94.4372 175.381 89.1606 175.381C83.8841 175.381 81.2458 173.453 81.2458 169.597V30.7839C81.2458 26.928 83.8841 25 89.1606 25Z" fill="#0A70B0"/>
<path d="M63.0418 159.196H111.5C116.884 159.196 119.576 161.888 119.576 167.272C119.576 172.657 116.884 175.349 111.5 175.349H63.0418C57.6576 175.349 54.9655 172.657 54.9655 167.272C54.9655 161.888 57.6576 159.196 63.0418 159.196Z" fill="#0A70B0"/>
</svg>
