
<svg width="100" height="100" viewBox="0 0 200 200" fill="none" xmlns="http://www.w3.org/2000/svg">
<path d="M100 178.125C143.147 178.125 178.125 143.147 178.125 100C178.125 56.8527 143.147 21.875 100 21.875C56.8527 21.875 21.875 56.8527 21.875 100C21.875 143.147 56.8527 178.125 100 178.125ZM100 187.5C51.675 187.5 12.5 148.325 12.5 100C12.5 51.675 51.675 12.5 100 12.5C148.325 12.5 187.5 51.675 187.5 100C187.5 148.325 148.325 187.5 100 187.5ZM25.5391 63.3289L21.7309 60.5957L27.1973 52.9793L31.0055 55.7125C36.1883 59.432 43.4465 62.3775 52.7613 64.5168C59.7811 42.6686 73.9855 26.3703 95.3125 15.8617V13.2812H104.688V16.6225C125.165 27.1447 138.861 43.1732 145.716 64.4854C154.966 62.3486 162.179 59.4139 167.336 55.7125L171.144 52.9793L176.611 60.5957L172.802 63.3289C166.663 67.7348 158.452 71.1283 148.149 73.543C149.957 81.8035 150.862 90.7563 150.862 100.391C150.862 108.56 150.211 116.239 148.911 123.421C159.59 125.818 168.084 129.204 174.416 133.613L178.263 136.292L172.905 143.985L169.059 141.307C163.756 137.614 156.341 134.689 146.833 132.561C140.416 155.743 126.345 173.03 104.688 184.159V186.719H101.072L100.699 187.499L99.2439 186.805L97.7885 187.499L97.416 186.719H95.3125V184.92C72.7885 173.821 58.209 156.265 51.6477 132.534C42.0807 134.663 34.6242 137.598 29.2988 141.307L25.452 143.985L20.0947 136.292L23.9414 133.613C30.2979 129.187 38.834 125.792 49.5717 123.393C48.2752 116.219 47.626 108.549 47.626 100.391C47.626 90.7689 48.5289 81.827 50.3318 73.5754C39.9635 71.1588 31.7059 67.7547 25.5393 63.3289H25.5391ZM104.688 119.041C117.951 119.228 129.62 120.102 139.707 121.683C140.894 115.083 141.487 107.988 141.487 100.391C141.487 91.3344 140.645 82.991 138.957 75.349C129.087 76.9535 117.668 77.8418 104.688 78.0352V119.041ZM136.438 66.2551C130.725 49.3326 120.155 36.4061 104.688 27.3166V68.6586C116.775 68.4725 127.362 67.6645 136.438 66.2551ZM59.5262 75.3721C57.8418 83.0078 57.001 91.3434 57.001 100.391C57.001 107.98 57.5928 115.069 58.7777 121.663C69.2504 120.03 81.4238 119.157 95.3125 119.021V78.0559C81.7062 77.9164 69.782 77.0297 59.5262 75.3721ZM95.3125 26.4492C79.0127 35.5801 67.9381 48.7977 62.0426 66.2766C71.5012 67.7365 82.5955 68.5453 95.3125 68.6801V26.4492ZM104.688 173.465C121.259 163.727 132.208 149.585 137.587 130.844C128.199 129.415 117.228 128.6 104.688 128.417V173.465ZM60.8959 130.825C66.4342 150.14 77.8879 164.571 95.3125 174.332V128.397C82.1412 128.53 70.6641 129.346 60.8959 130.825Z" fill="#666666"/>
</svg>
