<svg width="100" height="100" viewBox="0 0 200 200" fill="none" xmlns="http://www.w3.org/2000/svg">
<path d="M186.25 74.6875L153.437 27.5C151.25 25.3125 147.812 23.125 144.687 23.125H56.5625C53.125 23.125 50 24.375 47.8125 27.5L14.6875 74.6875C13.4375 76.5625 12.5 78.75 12.5 81.25V163.75C12.5 170.312 18.125 176.875 24.6875 176.875H175.625C182.188 176.875 187.812 171.25 187.812 163.75V81.25C187.5 78.4375 187.187 75.9375 186.25 74.6875ZM57.1875 35.3125H143.75C143.75 35.3125 144.062 35.3125 144.062 35.625L172.812 77.1875H131.562C128.437 77.1875 125.937 79.375 125.312 82.1875C122.5 95.9375 111.563 106.875 100.625 106.875C88.125 106.875 77.5 96.875 75 82.1875C74.375 79.375 71.875 77.1875 68.75 77.1875H28.125L57.1875 35.3125ZM175 164.687H25.3125C25.3125 164.375 25 164.063 25 163.75V89.6875H64.0625C69.375 107.5 83.75 119.375 100.937 119.375C116.562 119.375 131.25 106.875 136.563 89.6875H175V164.687Z" fill="#7B838B"/>
</svg>

