<svg width="100" height="100" viewBox="0 0 200 200" fill="none" xmlns="http://www.w3.org/2000/svg">
<path d="M156.888 18.2227H41.3325C31.5547 18.2227 23.5547 26.2227 23.5547 36.0004V169.334C23.5547 179.112 31.5547 187.112 41.3325 187.112H156.888C166.666 187.112 174.666 179.112 174.666 169.334V36.0004C174.666 26.2227 166.666 18.2227 156.888 18.2227ZM54.2214 61.3338H100.444C103.11 61.3338 104.888 63.1115 104.888 65.7782C104.888 68.4449 103.11 70.2227 100.444 70.2227H54.2214C51.5547 70.2227 49.7769 68.4449 49.7769 65.7782C49.7769 63.1115 51.5547 61.3338 54.2214 61.3338ZM142.666 139.556H54.2214C51.5547 139.556 49.7769 137.778 49.7769 135.112C49.7769 132.445 51.5547 130.667 54.2214 130.667H142.666C145.332 130.667 147.11 132.445 147.11 135.112C147.11 137.778 145.332 139.556 142.666 139.556ZM143.999 104.889H54.2214C51.5547 104.889 49.7769 103.112 49.7769 100.445C49.7769 97.7782 51.5547 96.0004 54.2214 96.0004H144.444C147.11 96.0004 148.888 97.7782 148.888 100.445C148.888 103.112 146.666 104.889 143.999 104.889Z" fill="#485264"/>
</svg>
