
<svg width="100" height="100" viewBox="0 0 200 200" fill="none" xmlns="http://www.w3.org/2000/svg">
<path d="M151.27 175H48.7305C35.6445 175 25 164.805 25 152.285V137.5C25 132.324 29.1992 128.125 34.375 128.125C39.5508 128.125 43.75 132.324 43.75 137.5V152.285C43.75 154.434 46.0352 156.25 48.7305 156.25H151.27C153.965 156.25 156.25 154.434 156.25 152.285V137.5C156.25 132.324 160.449 128.125 165.625 128.125C170.801 128.125 175 132.324 175 137.5V152.285C175 164.805 164.355 175 151.27 175Z" fill="white"/>
<path d="M100 134.023C94.8242 134.023 90.625 129.824 90.625 124.648V40.2734C90.625 35.0977 94.8242 30.8984 100 30.8984C105.176 30.8984 109.375 35.0977 109.375 40.2734V124.648C109.375 129.824 105.176 134.023 100 134.023Z" fill="white"/>
<path d="M122.715 66.4453C120.313 66.4453 117.91 65.5273 116.094 63.6914L100 47.6367L83.9258 63.7109C80.2539 67.3828 74.3359 67.3828 70.6641 63.7109C66.9922 60.0391 66.9922 54.1211 70.6641 50.4492L93.3789 27.7344C97.0508 24.0625 102.969 24.0625 106.641 27.7344L129.355 50.4492C133.027 54.1211 133.027 60.0391 129.355 63.7109C127.5 65.5469 125.098 66.4453 122.715 66.4453Z" fill="white"/>
</svg>
