
<svg width="100" height="100" viewBox="0 0 200 200" fill="none" xmlns="http://www.w3.org/2000/svg">
<path d="M159.199 34.4999C159.199 40.4194 159.301 46.1827 159.174 51.9409C159.003 59.7483 157.519 67.3182 154.569 74.5768C152.392 79.9352 149.536 84.9243 145.89 89.3889C143.662 92.1161 141.095 94.5889 138.516 96.9989C136.563 98.8229 134.35 100.367 132.3 101.997C133.89 103.219 135.694 104.444 137.305 105.884C139.566 107.905 141.819 109.967 143.825 112.233C145.854 114.527 147.703 117.008 149.411 119.555C153.241 125.268 155.847 131.549 157.371 138.246C158.014 141.072 158.577 143.957 158.747 146.84C159.064 152.199 159.07 157.576 159.196 162.946C159.219 163.936 159.199 164.927 159.199 166.011C162.052 166.011 164.811 166.112 167.561 165.988C171.845 165.794 175.176 169.534 174.964 173.77C174.788 177.272 172.467 180.437 168.72 180.802C167.936 180.879 167.149 180.992 166.364 180.992C122.664 181.002 78.9642 181 35.2646 181.001C31.1306 181.001 28.25 178.731 27.5648 174.852C26.7785 170.398 29.6955 165.989 34.6336 166.009C37.7293 166.021 40.8256 166.011 44.0779 166.011V164.927C44.0779 160.23 44.0453 155.534 44.0867 150.838C44.1316 145.734 44.9959 140.748 46.3672 135.839C47.6007 131.423 49.2474 127.156 51.5297 123.197C53.284 120.153 55.3343 117.265 57.4312 114.44C58.8597 112.515 60.5029 110.724 62.216 109.043C64.8142 106.493 67.6103 104.157 70.723 102.232C70.8324 102.165 70.9211 102.063 70.8925 102.088C68.6129 100.24 66.289 98.4341 64.0515 96.5268C59.1244 92.3272 55.2547 87.2647 52.0644 81.6542C48.7988 75.9108 46.4408 69.8321 45.28 63.3186C44.8675 61.0042 44.4195 58.671 44.3172 56.3319C44.116 51.721 44.1316 47.1003 44.0828 42.4835C44.0554 39.8598 44.0779 37.2356 44.0779 34.4995C41.0441 34.4995 38.0908 34.5262 35.1384 34.4819C34.3338 34.47 33.5148 34.311 32.7332 34.104C29.958 33.3682 28.3773 31.4159 27.7351 28.7422C26.9447 25.4532 28.2039 22.2307 31.0685 20.4907C31.9742 19.9405 33.1441 19.5508 34.1935 19.5497C78.9591 19.5038 123.724 19.4975 168.49 19.5419C171.158 19.5446 173.085 21.1497 174.254 23.4934C175.758 26.5106 175.064 30.4079 172.598 32.611C171.18 33.8772 169.51 34.4422 167.674 34.4833C164.886 34.5458 162.095 34.4999 159.199 34.4999ZM144.61 165.969C144.61 160.807 144.665 155.758 144.583 150.711C144.551 148.751 144.285 146.785 143.997 144.841C143.361 140.557 141.961 136.497 140.08 132.613C138.669 129.699 136.929 126.989 134.94 124.414C132.421 121.152 129.49 118.349 126.183 115.938C122.007 112.895 117.418 110.66 112.41 109.349C108.461 108.316 106.022 104.702 106.816 100.428C107.322 97.7073 109.484 95.3063 112.175 94.6559C115.875 93.7614 119.361 92.3007 122.613 90.3446C127.147 87.618 131.171 84.2878 134.492 80.118C137.737 76.0438 140.25 71.5852 142.022 66.6948C144.009 61.2098 144.791 55.5288 144.806 49.7231C144.819 45.0266 144.809 40.3299 144.809 35.6335V34.5723H58.6658C58.6658 41.5567 58.5822 48.4698 58.7132 55.379C58.7562 57.644 59.1947 59.9381 59.7359 62.1495C60.8097 66.5366 62.5535 70.6686 64.8226 74.5948C67.5472 79.3083 71.1107 83.2987 75.2718 86.7249C79.3851 90.1116 84.0609 92.5565 89.1779 94.1341C91.1299 94.7358 93.1095 95.2239 94.6078 96.8762C97.023 99.5397 97.0279 104.465 94.5783 107.056C93.2443 108.466 91.6154 109.067 89.8236 109.595C84.5441 111.15 79.7429 113.649 75.4447 117.128C72.0646 119.864 69.1105 122.968 66.6234 126.534C63.6839 130.749 61.533 135.334 60.1558 140.272C59.2324 143.582 58.5547 146.962 58.4898 150.406C58.3986 155.234 58.4668 160.065 58.4668 164.895V165.969C87.3 165.969 116 165.969 144.61 165.969V165.969ZM76.8517 70.5137H125.565C125.239 73.4036 123.647 75.4989 121.543 77.2938C121.416 77.4016 121.291 77.5106 121.172 77.6258C118.931 79.7985 116.75 82.038 114.435 84.128C111.881 86.4333 109.624 88.962 107.733 91.8362C106.443 93.796 106.003 96.0538 105.49 98.251C104.781 101.285 104.28 104.372 104.431 107.524C104.668 112.487 106.44 116.669 110.45 119.784C111.36 120.491 112.17 121.33 113.011 122.124C116.673 125.579 120.422 128.949 123.964 132.524C128.065 136.662 131.161 141.478 132.852 147.119C133.56 149.482 133.97 151.89 134.021 154.359C134.034 154.944 134.112 155.527 134.164 156.164H68.1326C68.3214 154.129 68.3771 152.122 68.7193 150.164C69.2599 147.072 70.2912 144.123 71.8037 141.35C73.1867 138.815 74.7617 136.414 76.7173 134.288C78.4015 132.457 80.0871 130.616 81.9027 128.919C85.2041 125.833 88.6037 122.853 91.9593 119.825C95.0757 117.014 97.2049 113.688 97.6656 109.393C97.9816 106.447 97.9211 103.543 97.2484 100.664C96.716 98.3854 96.1791 96.104 95.5211 93.8598C94.942 91.8852 93.7914 90.1846 92.3746 88.7192C89.7496 86.004 87.0578 83.353 84.3707 80.6985C82.6004 78.9499 80.7406 77.2893 79.0133 75.5003C77.7218 74.1626 76.815 72.5807 76.8519 70.5137H76.8517Z" fill="black"/>
</svg>
