<svg xmlns="http://www.w3.org/2000/svg" width="20" height="20" viewBox="0 0 20 20" fill="none">
    <path fill-rule="evenodd" clip-rule="evenodd"
        d="M4.16663 1.66663C4.62686 1.66663 4.99996 2.03972 4.99996 2.49996V5.83329C4.99996 6.29353 4.62686 6.66663 4.16663 6.66663C3.70639 6.66663 3.33329 6.29353 3.33329 5.83329V2.49996C3.33329 2.03972 3.70639 1.66663 4.16663 1.66663ZM9.99996 1.66663C10.4602 1.66663 10.8333 2.03972 10.8333 2.49996V5.14221C11.8043 5.48541 12.5 6.41144 12.5 7.49996C12.5 8.88067 11.3807 9.99996 9.99996 9.99996C8.61925 9.99996 7.49996 8.88067 7.49996 7.49996C7.49996 6.41144 8.19563 5.48541 9.16663 5.14221V2.49996C9.16663 2.03972 9.53972 1.66663 9.99996 1.66663ZM15.8333 1.66663C16.2935 1.66663 16.6666 2.03972 16.6666 2.49996V7.49996C16.6666 7.9602 16.2935 8.33329 15.8333 8.33329C15.3731 8.33329 15 7.9602 15 7.49996V2.49996C15 2.03972 15.3731 1.66663 15.8333 1.66663ZM9.99996 6.66663C9.53972 6.66663 9.16663 7.03972 9.16663 7.49996C9.16663 7.9602 9.53972 8.33329 9.99996 8.33329C10.4602 8.33329 10.8333 7.9602 10.8333 7.49996C10.8333 7.03972 10.4602 6.66663 9.99996 6.66663ZM4.16663 9.99996C3.70639 9.99996 3.33329 10.3731 3.33329 10.8333C3.33329 11.2935 3.70639 11.6666 4.16663 11.6666C4.62686 11.6666 4.99996 11.2935 4.99996 10.8333C4.99996 10.3731 4.62686 9.99996 4.16663 9.99996ZM1.66663 10.8333C1.66663 9.45258 2.78591 8.33329 4.16663 8.33329C5.54734 8.33329 6.66663 9.45258 6.66663 10.8333C6.66663 11.9218 5.97095 12.8478 4.99996 13.191V17.5C4.99996 17.9602 4.62686 18.3333 4.16663 18.3333C3.70639 18.3333 3.33329 17.9602 3.33329 17.5L3.33329 13.191C2.3623 12.8478 1.66663 11.9218 1.66663 10.8333ZM15.8333 11.6666C15.3731 11.6666 15 12.0397 15 12.5C15 12.9602 15.3731 13.3333 15.8333 13.3333C16.2935 13.3333 16.6666 12.9602 16.6666 12.5C16.6666 12.0397 16.2935 11.6666 15.8333 11.6666ZM13.3333 12.5C13.3333 11.1192 14.4526 9.99996 15.8333 9.99996C17.214 9.99996 18.3333 11.1192 18.3333 12.5C18.3333 13.5885 17.6376 14.5145 16.6666 14.8577V17.5C16.6666 17.9602 16.2935 18.3333 15.8333 18.3333C15.3731 18.3333 15 17.9602 15 17.5V14.8577C14.029 14.5145 13.3333 13.5885 13.3333 12.5ZM9.99996 11.6666C10.4602 11.6666 10.8333 12.0397 10.8333 12.5V17.5C10.8333 17.9602 10.4602 18.3333 9.99996 18.3333C9.53972 18.3333 9.16663 17.9602 9.16663 17.5V12.5C9.16663 12.0397 9.53972 11.6666 9.99996 11.6666Z" />
</svg>


<svg width="100" height="100" viewBox="0 0 200 200" fill="none" xmlns="http://www.w3.org/2000/svg">
<path d="M134.924 151.978C124.335 159.49 111.944 163.254 99.2793 163.08C97.6165 163.063 95.955 162.979 94.2989 162.829C93.6276 162.767 92.9563 162.653 92.2803 162.569C90.986 162.394 89.6901 162.221 88.4313 161.973C87.652 161.825 86.8891 161.621 86.1272 161.442C84.8908 161.149 83.6619 160.852 82.4575 160.489C81.8756 160.307 81.3106 160.099 80.7348 159.901C79.3448 159.429 77.9617 158.943 76.6117 158.371C76.3057 158.247 76.0131 158.102 75.708 157.962C74.136 157.263 72.5752 156.528 71.0729 155.699C71.0002 155.661 70.9381 155.628 70.8643 155.592C65.7753 152.762 61.1133 149.225 57.0176 145.087C56.9553 145.024 56.8881 144.947 56.8213 144.873C55.5489 143.58 54.3363 142.23 53.1873 140.826C52.9457 140.525 52.7116 140.204 52.467 139.895C44.1471 129.353 39.1284 116.013 39.1284 101.5H53.2446C53.4297 101.5 53.6114 101.45 53.7703 101.355C53.9293 101.26 54.0596 101.124 54.1474 100.961C54.2352 100.798 54.2772 100.615 54.2689 100.43C54.2607 100.245 54.2025 100.065 54.1006 99.9109L30.3707 63.8766C30.2774 63.7347 30.1503 63.6183 30.0008 63.5377C29.8514 63.4572 29.6843 63.415 29.5145 63.415C29.3447 63.415 29.1776 63.4572 29.0281 63.5377C28.8787 63.6183 28.7516 63.7347 28.6582 63.8766L4.93128 99.9113C4.8292 100.066 4.77095 100.245 4.76273 100.43C4.75451 100.615 4.79663 100.798 4.8846 100.961C4.97218 101.124 5.10233 101.261 5.2612 101.355C5.42007 101.45 5.6017 101.5 5.78675 101.5H19.9053C19.9053 118.562 25.1573 134.377 34.0838 147.453C34.1924 147.636 34.2711 147.831 34.3912 148.012C35.316 149.35 36.3424 150.584 37.3342 151.848C37.7041 152.326 38.0489 152.819 38.4342 153.288C39.8944 155.082 41.4459 156.77 43.0416 158.419C43.1944 158.582 43.3354 158.743 43.4846 158.891C48.8409 164.319 54.8979 168.894 61.4866 172.553C61.6565 172.657 61.827 172.761 62.0143 172.859C63.9121 173.89 65.8612 174.822 67.8387 175.705C68.3317 175.918 68.8133 176.16 69.3151 176.373C71.0045 177.081 72.7403 177.702 74.4914 178.296C75.3186 178.581 76.1408 178.871 76.9793 179.133C78.5067 179.589 80.0713 179.973 81.6489 180.352C82.6934 180.599 83.7315 180.865 84.7963 181.072C85.2395 181.162 85.6561 181.301 86.0899 181.367C87.5739 181.633 89.0699 181.784 90.5573 181.966C91.0938 182.029 91.6217 182.122 92.1588 182.18C94.8309 182.446 97.4944 182.623 100.155 182.623C116.437 182.623 132.323 177.581 145.95 167.917C150.292 164.828 151.351 158.768 148.308 154.366C145.259 149.954 139.265 148.887 134.924 151.978ZM180.104 101.5C180.094 84.4902 174.874 68.708 165.991 55.6572C165.864 55.4344 165.775 55.209 165.629 55.0004C164.524 53.4041 163.319 51.918 162.12 50.4269C161.984 50.2449 161.855 50.0537 161.707 49.875C153.579 39.891 143.376 32.1803 131.809 27.1373C131.49 26.9957 131.175 26.8404 130.854 26.7002C129.006 25.9316 127.115 25.2514 125.216 24.6094C124.53 24.3799 123.857 24.1275 123.156 23.9199C121.5 23.4133 119.819 22.9992 118.123 22.6039C117.189 22.3832 116.253 22.1432 115.305 21.9551C114.836 21.8637 114.393 21.7238 113.928 21.6383C112.664 21.4182 111.393 21.3215 110.126 21.1541C109.248 21.0436 108.391 20.9051 107.505 20.8148C105.376 20.6148 103.263 20.5305 101.153 20.4922C100.765 20.4922 100.393 20.4297 100.007 20.4297C99.9379 20.4297 99.8731 20.4506 99.8018 20.4562C83.5414 20.4687 67.6899 25.4393 54.0803 35.0922C49.7268 38.1723 48.6684 44.2389 51.7127 48.6432C54.752 53.049 60.7553 54.117 65.0994 51.0287C75.6116 43.5756 87.8756 39.8025 100.454 39.9178C102.24 39.9289 104.025 40.0188 105.804 40.1873C106.346 40.2492 106.883 40.3318 107.423 40.399C108.869 40.5773 110.304 40.7857 111.717 41.068C112.343 41.191 112.957 41.3518 113.567 41.4926C114.955 41.8094 116.339 42.1494 117.696 42.5633C118.123 42.702 118.545 42.8562 118.972 42.9979C120.521 43.5105 122.04 44.0615 123.54 44.6928C123.689 44.757 123.845 44.8383 123.993 44.8984C132.952 48.8002 140.807 54.8037 146.938 62.318C146.977 62.3629 147.014 62.4211 147.051 62.4654C155.68 73.1012 160.874 86.6955 160.879 101.5H146.758C146.573 101.5 146.391 101.549 146.232 101.644C146.073 101.739 145.943 101.875 145.855 102.037C145.767 102.2 145.725 102.384 145.734 102.569C145.742 102.754 145.801 102.933 145.903 103.087L169.637 139.119C169.729 139.261 169.856 139.378 170.005 139.459C170.155 139.54 170.322 139.581 170.492 139.581C170.662 139.581 170.829 139.538 170.979 139.458C171.128 139.377 171.255 139.261 171.349 139.119L195.069 103.087C195.171 102.932 195.23 102.753 195.238 102.569C195.247 102.384 195.205 102.2 195.117 102.037C195.029 101.874 194.899 101.738 194.74 101.644C194.581 101.549 194.399 101.499 194.214 101.5H180.105L180.104 101.5Z" fill="#000"/>
</svg>
