<svg width="100" height="100" viewBox="0 0 200 200" fill="none" xmlns="http://www.w3.org/2000/svg">
<g clip-path="url(#clip0_1858_7272)">
<path d="M100 199.998C79.5652 199.998 60 193.911 43.0435 181.737C21.3044 166.52 6.52174 143.476 1.73914 117.389C-3.04347 91.3024 2.6087 64.7807 18.2609 42.6068C33.913 20.4329 56.087 6.08505 82.6087 1.73722C93.4783 -0.00190577 104.348 -0.436688 115.217 1.30244C121.739 2.17201 126.522 8.69375 125.652 15.2155C124.783 22.172 118.261 26.9546 111.304 25.6503C103.043 24.7807 94.7826 24.7807 86.9565 26.0851C67.3913 29.5633 50 40.4329 38.6957 56.9546C32.9544 64.9873 28.8807 74.0889 26.7151 83.7221C24.5495 93.3552 24.336 103.325 26.087 113.042C33.4783 153.911 72.1739 180.868 113.043 173.911C153.913 166.52 180.87 127.824 173.913 86.9546C172.609 79.9981 177.391 73.4764 183.913 72.6068C190.87 71.3024 197.391 76.085 198.261 82.6068C207.826 136.955 171.739 188.694 117.391 198.694C111.739 199.563 105.652 199.998 100 199.998Z" fill="black"/>
<path d="M100.001 160.436C66.5229 160.436 39.5664 133.479 39.5664 100.001C39.5664 66.5229 66.5229 39.5664 100.001 39.5664H103.479C110.436 40.0012 115.653 46.0881 115.219 52.6099C114.784 59.5664 108.697 64.7838 102.175 64.349H100.001C80.436 64.349 64.349 80.436 64.349 100.001C64.349 119.566 80.436 135.653 100.001 135.653C119.566 135.653 135.653 119.566 135.653 100.001C135.653 93.0447 141.306 87.3925 148.262 87.3925C155.219 87.3925 160.871 93.0447 160.871 100.001C160.436 133.479 133.045 160.436 100.001 160.436Z" fill="black"/>
<path d="M87.3906 101.302C87.3906 103.072 87.7392 104.825 88.4166 106.46C89.0939 108.096 90.0867 109.581 91.3383 110.833C92.5899 112.085 94.0757 113.077 95.711 113.755C97.3462 114.432 99.0989 114.781 100.869 114.781C102.639 114.781 104.392 114.432 106.027 113.755C107.662 113.077 109.148 112.085 110.399 110.833C111.651 109.581 112.644 108.096 113.321 106.46C113.999 104.825 114.347 103.072 114.347 101.302C114.347 99.5325 113.999 97.7798 113.321 96.1446C112.644 94.5093 111.651 93.0235 110.399 91.7719C109.148 90.5203 107.662 89.5275 106.027 88.8502C104.392 88.1728 102.639 87.8242 100.869 87.8242C99.0989 87.8242 97.3462 88.1728 95.711 88.8502C94.0757 89.5275 92.5899 90.5203 91.3383 91.7719C90.0867 93.0235 89.0939 94.5093 88.4166 96.1446C87.7392 97.7798 87.3906 99.5325 87.3906 101.302Z" fill="black"/>
<path d="M102.176 91.7398L123.045 70.8702L120.871 41.7398L152.176 12.6094L156.524 46.0876L190.002 50.4355L158.698 81.7398L131.741 79.5659L110.871 98.2616L102.176 91.7398Z" fill="black"/>
</g>
<defs>
<clipPath id="clip0_1858_7272">
<rect width="200" height="200" fill="white"/>
</clipPath>
</defs>
</svg>
